<svg xmlns="http://www.w3.org/2000/svg" viewBox="0 0 360 240" role="img" aria-label="Rockfall protection mesh" preserveAspectRatio="xMidYMid slice">
  <rect width="360" height="240" fill="#E7F2F3"/>
  <path d="M-156 40 L24 220 M-156 220 L24 40 M-130 40 L50 220 M-130 220 L50 40 M-104 40 L76 220 M-104 220 L76 40 M-78 40 L102 220 M-78 220 L102 40 M-52 40 L128 220 M-52 220 L128 40 M-26 40 L154 220 M-26 220 L154 40 M0 40 L180 220 M0 220 L180 40 M26 40 L206 220 M26 220 L206 40 M52 40 L232 220 M52 220 L232 40 M78 40 L258 220 M78 220 L258 40 M104 40 L284 220 M104 220 L284 40 M130 40 L310 220 M130 220 L310 40 M156 40 L336 220 M156 220 L336 40 M182 40 L362 220 M182 220 L362 40 M208 40 L388 220 M208 220 L388 40 M234 40 L414 220 M234 220 L414 40 M260 40 L440 220 M260 220 L440 40 M286 40 L466 220 M286 220 L466 40 M312 40 L492 220 M312 220 L492 40 M338 40 L518 220 M338 220 L518 40 M364 40 L544 220 M364 220 L544 40 M390 40 L570 220 M390 220 L570 40" stroke="#1F6B7A" stroke-width="2.6" fill="none" clip-path="url(#pm)"/>
  <defs><clipPath id="pm"><rect x="46" y="44" width="268" height="150"/></clipPath></defs>
  <path d="M46 44 q134 -18 268 0" fill="none" stroke="#1F6B7A" stroke-width="4"/>
</svg>
